<svg xmlns="http://www.w3.org/2000/svg" viewBox="0 0 96 72" role="img" aria-label="ノウニス">
  <defs>
    <linearGradient id="ball" x1="0" y1="0" x2="1" y2="1">
      <stop offset="0" stop-color="#A3E635"/>
      <stop offset="1" stop-color="#7CCF18"/>
    </linearGradient>
    <linearGradient id="swoosh" x1="0" y1="0" x2="1" y2="0">
      <stop offset="0" stop-color="#14B8A6"/>
      <stop offset="1" stop-color="#A3E635"/>
    </linearGradient>
  </defs>
  <!-- brain silhouette -->
  <path d="M47 13c-5-7-17-7-21 2-8-1-14 5-13 13-7 4-6 15 1 18-1 9 8 14 15 10 4 7 15 7 20 1 5 5 15 3 17-4 7 1 12-6 9-13 5-6 1-15-6-16-1-8-10-12-17-8-1-2-3-3-5-3z"
        fill="none" stroke="#0B3A5B" stroke-width="5.5" stroke-linecap="round" stroke-linejoin="round"/>
  <!-- brain folds -->
  <path d="M27 24c5 0 7 4 5 8m-10 4c4-2 8 0 9 4m7-17c-3 3-3 7 0 10m2 7c-3 2-3 7 1 9m8-25c-3 2-4 6-1 9m6-2c-3 2-3 6 0 8"
        fill="none" stroke="#0B3A5B" stroke-width="3.5" stroke-linecap="round"/>
  <!-- tennis ball -->
  <circle cx="65" cy="37" r="18" fill="url(#ball)"/>
  <path d="M54 22c7 5 11 11 11 18 0 6-2 10-6 14M76 27c-5 3-8 7-9 13-1 6 1 11 5 15"
        fill="none" stroke="#fff" stroke-width="3" stroke-linecap="round"/>
  <!-- motion / connection -->
  <path d="M8 59c12 5 24 4 34-3 7-5 12-11 16-19" fill="none" stroke="url(#swoosh)" stroke-width="5" stroke-linecap="round"/>
</svg>